<svg xmlns="http://www.w3.org/2000/svg" viewBox="0 0 53.25 53.25">
    <defs>
        <style>
            .cls-1{fill:#fff}
        </style>
    </defs>
    <g id="Слой_2" data-name="Слой 2">
        <g id="Layer_1" data-name="Layer 1">
            <path class="cls-1" d="M26.62 34.25a4.63 4.63 0 1 1 4.63-4.63 4.63 4.63 0 0 1-4.63 4.63Zm0-8A3.38 3.38 0 1 0 30 29.62a3.37 3.37 0 0 0-3.38-3.37ZM32.12 53.25a.63.63 0 0 1-.62-.63v-10a.63.63 0 0 1 1.25 0v10a.63.63 0 0 1-.63.63Z"/>
            <path class="cls-1" d="M36.62 53.25a.63.63 0 0 1-.62-.63v-10a5.38 5.38 0 0 0-5.38-5.37h-8a5.38 5.38 0 0 0-5.37 5.37v10a.63.63 0 1 1-1.25 0v-10A6.63 6.63 0 0 1 22.62 36h8a6.63 6.63 0 0 1 6.63 6.62v10a.63.63 0 0 1-.63.63Z"/>
            <path class="cls-1" d="M21.12 53.25a.63.63 0 0 1-.62-.63v-10a.63.63 0 0 1 1.25 0v10a.63.63 0 0 1-.63.63ZM42.62 34.25a4.63 4.63 0 1 1 4.63-4.63 4.63 4.63 0 0 1-4.63 4.63Zm0-8A3.38 3.38 0 1 0 46 29.62a3.37 3.37 0 0 0-3.38-3.37ZM48.12 53.25a.63.63 0 0 1-.62-.63v-10a.63.63 0 0 1 1.25 0v10a.63.63 0 0 1-.63.63Z"/>
            <path class="cls-1" d="M52.62 53.25a.63.63 0 0 1-.62-.63v-10a5.38 5.38 0 0 0-5.38-5.37h-8a.63.63 0 0 1 0-1.25h8a6.63 6.63 0 0 1 6.63 6.62v10a.63.63 0 0 1-.63.63ZM10.62 34.25a4.63 4.63 0 1 1 4.63-4.63 4.63 4.63 0 0 1-4.63 4.63Zm0-8A3.38 3.38 0 1 0 14 29.62a3.37 3.37 0 0 0-3.38-3.37ZM5.12 53.25a.63.63 0 0 1-.62-.63v-10a.63.63 0 0 1 1.25 0v10a.63.63 0 0 1-.63.63Z"/>
            <path class="cls-1" d="M.62 53.25a.63.63 0 0 1-.62-.63v-10A6.63 6.63 0 0 1 6.62 36h8a.63.63 0 1 1 0 1.25h-8a5.38 5.38 0 0 0-5.37 5.37v10a.63.63 0 0 1-.63.63ZM34.62 23.25a.62.62 0 0 1-.44-.18l-3.81-3.82h-7.49l-3.81 3.82a.64.64 0 0 1-.89 0l-3.81-3.82H8.62A1.63 1.63 0 0 1 7 17.62v-16A1.63 1.63 0 0 1 8.62 0h36a1.63 1.63 0 0 1 1.63 1.62v16a1.63 1.63 0 0 1-1.63 1.63h-5.74l-3.81 3.82a.63.63 0 0 1-.45.18Zm-12-5.25h8a.67.67 0 0 1 .45.18l3.55 3.56 3.56-3.56a.67.67 0 0 1 .44-.18h6a.38.38 0 0 0 .38-.38v-16a.38.38 0 0 0-.38-.37h-36a.38.38 0 0 0-.37.37v16a.38.38 0 0 0 .37.38h6a.67.67 0 0 1 .45.18l3.55 3.56 3.56-3.56a.67.67 0 0 1 .44-.18Z"/>
            <circle class="cls-1" cx="26.63" cy="9.63" r="1"/>
            <circle class="cls-1" cx="18.63" cy="9.63" r="1"/>
            <circle class="cls-1" cx="34.63" cy="9.63" r="1"/>
        </g>
    </g>
</svg>
