<svg xmlns="http://www.w3.org/2000/svg" viewBox="0 0 53.25 53.25">
    <defs>
        <style>
            .cls-1{fill:#fff}
        </style>
    </defs>
    <g id="Слой_2" data-name="Слой 2">
        <g id="Layer_1" data-name="Layer 1">
            <path class="cls-1" d="M15.55 30.5a.61.61 0 0 1-.62-.62v-.43a4.61 4.61 0 0 1 .89-2.78 4 4 0 0 0 .7-3.17 3.94 3.94 0 0 0-3-3.09 4 4 0 0 0-3.37.8 4 4 0 0 0-.69 5.46 4.61 4.61 0 0 1 .89 2.78v.43a.62.62 0 0 1-.62.62H.62a.62.62 0 0 1-.62-.62V2.62A2.63 2.63 0 0 1 2.62 0h21.76a.62.62 0 0 1 .62.62v10.66a3.4 3.4 0 0 0 1.84-.64 5.23 5.23 0 0 1 8.23 3.08A5.23 5.23 0 0 1 26.84 19a3.4 3.4 0 0 0-1.84-.61v11.48a.63.63 0 0 1-.62.63Zm-14.3-1.25h7.82a3.43 3.43 0 0 0-.64-1.84 5.23 5.23 0 0 1 .9-7.17 5.25 5.25 0 0 1 4.41-1 5.22 5.22 0 0 1 3.08 8.22 3.43 3.43 0 0 0-.64 1.84h7.57V17.76a.63.63 0 0 1 .63-.62h.43a4.63 4.63 0 0 1 2.78.89 4 4 0 0 0 5.41-.69 4 4 0 0 0 .8-3.37 3.92 3.92 0 0 0-3.08-3 4 4 0 0 0-3.17.7 4.61 4.61 0 0 1-2.78.89h-.43a.63.63 0 0 1-.63-.62V1.25H2.62a1.38 1.38 0 0 0-1.37 1.37Z"/>
            <path class="cls-1" d="M52.62 30.5a.63.63 0 0 1-.62-.63V2.62a1.38 1.38 0 0 0-1.38-1.37H24.38a.63.63 0 1 1 0-1.25h26.24a2.63 2.63 0 0 1 2.63 2.62v27.25a.63.63 0 0 1-.63.63Z"/>
            <path class="cls-1" d="M50.62 53.25H24.38a.63.63 0 0 1-.63-.63v-7.81a3.34 3.34 0 0 0-1.84.63 5.14 5.14 0 0 1-4.15.93 5.22 5.22 0 0 1-4.08-4A5.3 5.3 0 0 1 14.74 38a5.23 5.23 0 0 1 7.17-.9 3.35 3.35 0 0 0 1.84.64v-7.86a.63.63 0 0 1 .63-.63H35.9a.63.63 0 0 1 .63.63v.43a4.61 4.61 0 0 1-.89 2.78 4 4 0 1 0 7.17 2.37 3.91 3.91 0 0 0-.81-2.37 4.61 4.61 0 0 1-.89-2.78v-.43a.63.63 0 0 1 .63-.63h10.88a.63.63 0 0 1 .63.63v20.74a2.63 2.63 0 0 1-2.63 2.63ZM25 52h25.62A1.38 1.38 0 0 0 52 50.62V30.5h-9.61a3.29 3.29 0 0 0 .61 1.84 5.23 5.23 0 1 1-8.39 0 3.28 3.28 0 0 0 .63-1.84H25v7.82a.63.63 0 0 1-.62.63h-.44a4.7 4.7 0 0 1-2.78-.89 3.91 3.91 0 0 0-2.37-.79 4 4 0 0 0-3.08 1.47 4 4 0 0 0-.8 3.37 4 4 0 0 0 6.26 2.33 4.58 4.58 0 0 1 2.77-.89h.44a.63.63 0 0 1 .62.63Z"/>
            <path class="cls-1" d="M24.38 53.25H2.62A2.63 2.63 0 0 1 0 50.62V29.88a.63.63 0 1 1 1.25 0v20.74A1.38 1.38 0 0 0 2.62 52h21.76a.63.63 0 0 1 0 1.25Z"/>
        </g>
    </g>
</svg>
