

<svg xmlns="http://www.w3.org/2000/svg" viewBox="0 0 49.25 53.25" fill="#fff">
    <g id="Слой_2" data-name="Слой 2">
        <g id="Layer_1" data-name="Layer 1">
            <path class="cls-1" d="M24.68 53.25h-.34c-6.21-.19-10.55-5.76-10.55-13.54v-.32a.63.63 0 1 1 1.25 0v.32c0 7.18 3.75 12.12 9.34 12.29a9.65 9.65 0 0 0 9.94-9.64v-2.18a7.52 7.52 0 0 1 4.24-7.54A16.54 16.54 0 0 0 48 17.73 16.48 16.48 0 0 0 31.21 1.25a16.61 16.61 0 0 0-15.74 13.22.64.64 0 0 1-.75.47.62.62 0 0 1-.47-.75A17.87 17.87 0 0 1 31.19 0a17.72 17.72 0 0 1 7.86 33.77 6.26 6.26 0 0 0-3.52 6.3v2.29a10.89 10.89 0 0 1-10.85 10.89Z"/>
            <path class="cls-1" d="M20.57 35a.63.63 0 0 1 0-1.25 6 6 0 1 0 0-12 .62.62 0 0 1-.62-.62v-3.4a11.57 11.57 0 0 1 23.14 0 .63.63 0 1 1-1.25 0 10.32 10.32 0 0 0-20.64 0v2.84A7.23 7.23 0 0 1 20.57 35ZM8 43.24a.59.59 0 0 1-.44-.19.63.63 0 0 1 0-.88 22 22 0 0 0 0-31.09.63.63 0 0 1 .89-.88 23.27 23.27 0 0 1 0 32.85.63.63 0 0 1-.45.19Z"/>
            <path class="cls-1" d="M4.31 39.55a.59.59 0 0 1-.44-.19.63.63 0 0 1 0-.88 16.78 16.78 0 0 0 0-23.71.63.63 0 0 1 .89-.88 18 18 0 0 1 0 25.47.63.63 0 0 1-.45.19Z"/>
            <path class="cls-1" d="M.62 35.86a.62.62 0 0 1-.44-.18.64.64 0 0 1 0-.89 11.55 11.55 0 0 0 0-16.33.63.63 0 0 1 .89-.88 12.81 12.81 0 0 1 0 18.1.64.64 0 0 1-.45.18Z"/>
        </g>
    </g>
</svg>
