<svg xmlns="http://www.w3.org/2000/svg" viewBox="0 0 39.25 53.25">
    <defs>
        <style>
            .cls-1{fill:#fff}
        </style>
    </defs>
    <g id="Слой_2" data-name="Слой 2">
        <g id="Layer_1" data-name="Layer 1">
            <path class="cls-1" d="M27.62 41.25h-16A2.63 2.63 0 0 1 9 38.62v-1.28a2.36 2.36 0 0 0-1-1.9 19.7 19.7 0 0 1-8-15.82.63.63 0 0 1 1.25 0 18.41 18.41 0 0 0 7.53 14.81 3.64 3.64 0 0 1 1.47 2.91v1.28A1.38 1.38 0 0 0 11.62 40h16A1.38 1.38 0 0 0 29 38.62v-1.28a3.64 3.64 0 0 1 1.47-2.91A18.41 18.41 0 0 0 38 19.62a.63.63 0 0 1 1.25 0 19.7 19.7 0 0 1-8 15.82 2.36 2.36 0 0 0-1 1.9v1.28a2.63 2.63 0 0 1-2.63 2.63Z"/>
            <path class="cls-1" d="M38.62 20.25a.63.63 0 0 1-.62-.63 18.38 18.38 0 0 0-36.75 0 .63.63 0 1 1-1.25 0 19.63 19.63 0 0 1 39.25 0 .63.63 0 0 1-.63.63ZM27.62 45.25h-16a2.63 2.63 0 0 1 0-5.25h16a2.63 2.63 0 1 1 0 5.25Zm-16-4a1.38 1.38 0 0 0 0 2.75h16a1.38 1.38 0 1 0 0-2.75Z"/>
            <path class="cls-1" d="M27.62 49.25h-16a2.63 2.63 0 0 1 0-5.25h16a2.63 2.63 0 1 1 0 5.25Zm-16-4a1.38 1.38 0 0 0 0 2.75h16a1.38 1.38 0 1 0 0-2.75Z"/>
            <path class="cls-1" d="M22.62 53.25h-6A3.63 3.63 0 0 1 13 49.62v-1a.62.62 0 0 1 .62-.62h12a.63.63 0 0 1 .63.62v1a3.64 3.64 0 0 1-3.63 3.63Zm-8.37-4v.37A2.38 2.38 0 0 0 16.62 52h6A2.39 2.39 0 0 0 25 49.62v-.37ZM26.62 29.25h-14A2.63 2.63 0 0 1 10 26.62v-14A2.63 2.63 0 0 1 12.62 10h14a2.63 2.63 0 0 1 2.63 2.62v14a2.63 2.63 0 0 1-2.63 2.63Zm-14-18a1.38 1.38 0 0 0-1.37 1.37v14A1.38 1.38 0 0 0 12.62 28h14A1.38 1.38 0 0 0 28 26.62v-14a1.38 1.38 0 0 0-1.38-1.37Z"/>
            <path class="cls-1" d="M23.62 24.25h-8a.63.63 0 0 1-.62-.63v-8a.62.62 0 0 1 .62-.62h8a.63.63 0 0 1 .63.62v8a.63.63 0 0 1-.63.63ZM16.25 23H23v-6.75h-6.75ZM31.62 14.25h-3a.63.63 0 0 1 0-1.25h3a.63.63 0 1 1 0 1.25ZM10.62 14.25h-3a.63.63 0 0 1 0-1.25h3a.63.63 0 1 1 0 1.25ZM31.62 18.25h-3a.63.63 0 0 1 0-1.25h3a.63.63 0 1 1 0 1.25ZM10.62 18.25h-3a.63.63 0 0 1 0-1.25h3a.63.63 0 1 1 0 1.25ZM31.62 22.25h-3a.63.63 0 0 1 0-1.25h3a.63.63 0 1 1 0 1.25ZM10.62 22.25h-3a.63.63 0 0 1 0-1.25h3a.63.63 0 1 1 0 1.25ZM31.62 26.25h-3a.63.63 0 0 1 0-1.25h3a.63.63 0 1 1 0 1.25ZM10.62 26.25h-3a.63.63 0 0 1 0-1.25h3a.63.63 0 1 1 0 1.25ZM13.62 11.25a.63.63 0 0 1-.62-.63v-3a.63.63 0 0 1 1.25 0v3a.63.63 0 0 1-.63.63ZM13.62 32.25a.63.63 0 0 1-.62-.63v-3a.63.63 0 0 1 1.25 0v3a.63.63 0 0 1-.63.63ZM17.62 11.25a.63.63 0 0 1-.62-.63v-3a.63.63 0 0 1 1.25 0v3a.63.63 0 0 1-.63.63ZM17.62 32.25a.63.63 0 0 1-.62-.63v-3a.63.63 0 0 1 1.25 0v3a.63.63 0 0 1-.63.63ZM21.62 11.25a.63.63 0 0 1-.62-.63v-3a.63.63 0 0 1 1.25 0v3a.63.63 0 0 1-.63.63ZM21.62 32.25a.63.63 0 0 1-.62-.63v-3a.63.63 0 0 1 1.25 0v3a.63.63 0 0 1-.63.63ZM25.62 11.25a.63.63 0 0 1-.62-.63v-3a.63.63 0 0 1 1.25 0v3a.63.63 0 0 1-.63.63ZM25.62 32.25a.63.63 0 0 1-.62-.63v-3a.63.63 0 0 1 1.25 0v3a.63.63 0 0 1-.63.63Z"/>
        </g>
    </g>
</svg>
